<svg width="1440" height="1092" viewBox="0 0 1440 1092" fill="none" xmlns="http://www.w3.org/2000/svg">
<g clipPath="url(#clip0_113_27)">
<rect width="1440" height="1092" fill="#693587"/>
<path d="M-170.832 21.4946C-168.365 -35.2481 -114.583 -152.188 80.8098 -166.003C325.05 -183.273 194.295 -119.129 517.482 -82.1226C840.669 -45.1165 1033.1 -158.602 1151.52 -318.962C1269.94 -479.322 1800.36 -383.106 1662.21 -124.063C1524.05 134.98 1353.82 460.634 853.005 394.023C352.188 327.412 243.637 112.776 -111.622 278.07C-466.881 443.365 -555.696 616.06 -326.258 847.965C-96.8197 1079.87 135.085 1092.21 209.098 870.169C283.11 648.132 159.756 581.521 463.207 655.533C766.657 729.546 956.622 929.379 1228 899.774C1499.38 870.169 1674.54 431.029 1817.63 741.881C1960.72 1052.73 1543.79 1758.32 1166.32 1575.75C788.861 1393.19 880.143 1015.73 544.62 1230.36C209.098 1445 384.26 1755.85 73.4086 1694.17C-237.443 1632.5 -326.258 1489.41 -489.085 1324.11C-651.912 1158.82 -772.799 1565.88 -538.426 1953.22C-304.054 2340.55 371.925 2133.31 478.009 1992.69C584.093 1852.07 912.214 1874.27 1104.65 1975.42C1297.08 2076.57 1679.48 2214.73 1733.75 2083.97C1788.03 1953.22 2012.53 2417.03 1797.9 2606.99C1583.26 2796.96 1158.92 2589.72 882.61 2476.24C606.297 2362.75 490.345 2476.24 120.283 2557.65C-249.778 2639.06 -449.612 2503.37 -614.906 2436.76C-780.2 2370.15 -832.009 3164.55 -484.151 3206.49C-136.293 3248.43 179.493 2930.18 431.135 2866.03C682.776 2801.89 1403.16 2935.11 1195.93 3322.44" stroke="#793D9C" stroke-opacity="0.6" stroke-width="279"/>
</g>
<defs>
<clipPath id="clip0_113_27">
<rect width="1440" height="1092" fill="white"/>
</clipPath>
</defs>
</svg>
